<svg xmlns="http://www.w3.org/2000/svg" width="54.333" height="54.333" viewBox="0 0 54.333 54.333"><path d="M0,0H54.333V54.333H0Z" fill="none"/><path d="M49.806,3H15.847a4.261,4.261,0,0,0-3.6,1.992L0,23.375l12.248,18.36a4.282,4.282,0,0,0,3.6,2.015H49.806a4.541,4.541,0,0,0,4.528-4.528V7.528A4.541,4.541,0,0,0,49.806,3ZM43.014,31.5l-3.192,3.192-8.127-8.127-8.127,8.127L20.375,31.5,28.5,23.375l-8.127-8.127,3.192-3.192,8.127,8.127,8.127-8.127,3.192,3.192-8.127,8.127Z" transform="translate(0 3.792)" fill="#454d66"/></svg>