<svg xmlns="http://www.w3.org/2000/svg" width="167" height="229" viewBox="0 0 167 229"><g transform="translate(-1306 -1376)"><g transform="translate(1306 1376)" fill="#fff" stroke="#413861" stroke-width="10"><rect width="167" height="229" rx="17" stroke="none"/><rect x="5" y="5" width="157" height="219" rx="12" fill="none"/></g><g transform="translate(1327 1400)" fill="#fff" stroke="#413861" stroke-width="5"><rect width="125" height="52" stroke="none"/><rect x="2.5" y="2.5" width="120" height="47" fill="none"/></g><g transform="translate(1336 1462)" fill="#fff" stroke="#413861" stroke-width="5"><rect width="32" height="32" stroke="none"/><rect x="2.5" y="2.5" width="27" height="27" fill="none"/></g><g transform="translate(1374 1462)" fill="#fff" stroke="#413861" stroke-width="5"><rect width="32" height="32" stroke="none"/><rect x="2.5" y="2.5" width="27" height="27" fill="none"/></g><g transform="translate(1412 1462)" fill="#fff" stroke="#413861" stroke-width="5"><rect width="32" height="32" stroke="none"/><rect x="2.5" y="2.5" width="27" height="27" fill="none"/></g><g transform="translate(1336 1507)" fill="#fff" stroke="#413861" stroke-width="5"><rect width="32" height="32" stroke="none"/><rect x="2.5" y="2.5" width="27" height="27" fill="none"/></g><g transform="translate(1374 1507)" fill="#fff" stroke="#413861" stroke-width="5"><rect width="32" height="32" stroke="none"/><rect x="2.5" y="2.5" width="27" height="27" fill="none"/></g><g transform="translate(1412 1507)" fill="#fff" stroke="#413861" stroke-width="5"><rect width="32" height="32" stroke="none"/><rect x="2.5" y="2.5" width="27" height="27" fill="none"/></g><g transform="translate(1336 1552)" fill="#fff" stroke="#413861" stroke-width="5"><rect width="32" height="32" stroke="none"/><rect x="2.5" y="2.5" width="27" height="27" fill="none"/></g><g transform="translate(1374 1552)" fill="#fff" stroke="#413861" stroke-width="5"><rect width="32" height="32" stroke="none"/><rect x="2.5" y="2.5" width="27" height="27" fill="none"/></g><g transform="translate(1412 1552)" fill="#fff" stroke="#413861" stroke-width="5"><rect width="32" height="32" stroke="none"/><rect x="2.5" y="2.5" width="27" height="27" fill="none"/></g></g></svg>